<?xml version="1.0" standalone="no"?>
<!DOCTYPE svg PUBLIC "-//W3C//DTD SVG 20010904//EN"
 "http://www.w3.org/TR/2001/REC-SVG-20010904/DTD/svg10.dtd">
<svg version="1.0" xmlns="http://www.w3.org/2000/svg"
 width="1280.000000pt" height="1280.000000pt" viewBox="0 0 1280.000000 1280.000000"
 preserveAspectRatio="xMidYMid meet">

<g transform="translate(0.000000,1280.000000) scale(0.100000,-0.100000)"
fill="#000000" stroke="none">
<path d="M1483 10119 c-437 -39 -821 -344 -964 -765 -62 -183 -59 -20 -59
-2872 0 -2583 0 -2605 20 -2704 28 -133 52 -203 113 -320 141 -272 387 -472
697 -565 l95 -28 5040 0 5040 0 90 28 c424 131 706 437 811 877 17 71 18 217
22 2630 2 1755 0 2592 -8 2674 -17 192 -63 340 -151 489 -192 324 -509 523
-889 557 -140 12 -9718 11 -9857 -1z m1435 -2389 c3 -1009 -3 -1257 -32 -1395
-58 -276 -171 -480 -386 -696 -209 -211 -398 -320 -665 -385 -103 -25 -310
-43 -402 -36 l-53 4 0 355 0 356 66 -6 c82 -8 198 6 288 34 172 55 353 226
424 402 52 131 52 109 52 1285 l0 1092 353 -2 352 -3 3 -1005z m7227 981 c219
-45 436 -133 601 -244 320 -214 576 -526 700 -854 135 -359 144 -834 22 -1198
-141 -422 -488 -819 -893 -1022 -142 -72 -363 -139 -535 -163 -99 -14 -387
-14 -492 0 -168 23 -391 91 -538 165 -103 52 -247 151 -352 241 -339 293 -541
652 -603 1074 -19 124 -21 401 -5 522 49 360 209 688 463 955 274 286 579 456
937 523 152 28 155 28 385 25 162 -3 233 -8 310 -24z m-5036 -671 c149 -371
296 -736 326 -810 31 -74 140 -342 242 -595 l186 -460 -21 -55 c-44 -119 -354
-875 -361 -883 -4 -4 -71 149 -149 340 -78 192 -221 541 -317 778 -96 236
-179 433 -184 438 -4 4 -50 -94 -101 -220 -301 -745 -439 -1084 -490 -1208
l-57 -140 -382 -3 c-305 -2 -382 0 -378 10 233 596 1403 3496 1408 3491 4 -5
129 -312 278 -683z m1725 -1063 c383 -956 696 -1743 696 -1748 0 -6 -145 -8
-377 -7 l-377 3 -139 340 c-76 187 -195 477 -264 645 -229 561 -623 1547 -623
1561 0 8 58 161 128 339 71 179 155 392 187 473 32 81 61 144 66 140 4 -4 320
-790 703 -1746z m-4626 -2684 l2 -311 -26 -31 c-23 -28 -31 -31 -82 -31 -60 1
-81 11 -100 47 -17 32 -15 60 8 83 31 31 48 25 52 -16 4 -44 29 -65 56 -48 15
10 17 38 20 318 l2 307 33 -3 32 -3 3 -312z m326 308 c4 -6 106 -650 106 -668
0 -2 -18 -3 -40 -3 -22 0 -40 3 -40 7 0 19 -52 408 -55 411 -7 7 -14 -35 -35
-203 -28 -230 -24 -215 -65 -215 -27 0 -35 4 -35 17 0 21 90 632 96 651 4 14
60 17 68 3z m447 -10 l24 -19 3 -296 3 -296 -25 -25 c-23 -23 -33 -25 -106
-25 l-80 0 0 340 0 340 79 0 c63 0 84 -4 102 -19z m253 11 c3 -5 14 -80 25
-167 12 -87 23 -160 25 -163 6 -6 13 23 27 123 13 96 22 115 53 115 22 0 25
-7 36 -67 6 -38 14 -90 17 -116 3 -26 10 -50 14 -53 5 -3 9 -2 9 3 0 20 41
328 45 331 1 2 18 2 37 0 l33 -3 -40 -335 -40 -335 -35 0 -35 0 -21 150 c-11
83 -24 143 -27 135 -4 -8 -15 -76 -25 -150 l-18 -135 -31 -3 c-38 -4 -32 -30
-78 338 -19 157 -37 297 -40 313 -4 25 -2 27 30 27 18 0 36 -4 39 -8z m592 -3
c5 -9 104 -634 104 -661 0 -4 -17 -8 -38 -8 l-39 0 -22 183 c-24 204 -30 241
-38 233 -3 -3 -18 -97 -32 -208 l-26 -203 -37 -3 c-25 -2 -38 1 -38 9 0 11 83
564 95 637 5 27 10 32 35 32 16 0 32 -5 36 -11z m332 -301 l2 -308 75 0 c41 0
75 -3 75 -8 0 -4 -7 -18 -16 -30 -14 -20 -23 -22 -110 -22 l-94 0 0 341 0 340
33 -3 32 -3 3 -307z m641 298 c7 -8 28 -90 47 -183 19 -92 38 -175 41 -183 3
-8 22 66 42 165 21 99 40 188 44 198 4 12 18 17 42 17 l35 0 0 -340 0 -340
-35 0 -35 0 -2 163 -3 162 -24 -102 c-22 -94 -26 -103 -47 -103 -30 0 -49 30
-65 105 -22 107 -28 93 -29 -67 l0 -158 -35 0 -35 0 0 340 0 340 24 0 c13 0
29 -6 35 -14z m555 6 c3 -5 25 -143 50 -308 25 -164 48 -314 51 -331 6 -33 6
-33 -35 -33 -22 0 -40 3 -40 7 0 15 -51 399 -54 408 -7 20 -15 -24 -40 -213
-13 -107 -27 -196 -29 -199 -3 -2 -20 -3 -39 -1 l-34 3 50 338 51 337 32 0
c17 0 34 -4 37 -8z m417 -5 c25 -19 39 -53 39 -95 0 -39 -16 -62 -52 -75 -16
-6 -18 0 -18 42 0 61 -7 81 -29 81 -39 0 -41 -16 -41 -286 0 -277 2 -291 47
-282 16 3 18 17 21 116 2 101 1 116 -18 139 -32 40 -26 53 23 53 24 0 48 -5
55 -12 8 -8 12 -58 12 -160 0 -145 -1 -150 -25 -173 -33 -34 -117 -36 -152 -3
l-23 21 0 303 0 303 26 20 c30 24 108 28 135 8z m345 2 c6 -10 103 -625 104
-656 0 -8 -14 -13 -38 -13 l-38 0 -23 188 c-13 103 -25 198 -29 211 -5 23 -6
23 -12 5 -4 -10 -18 -106 -31 -211 l-23 -193 -38 0 c-21 0 -38 4 -38 10 0 5
23 157 50 337 28 180 50 329 50 330 0 9 60 1 66 -8z m323 -3 c6 -7 25 -84 43
-170 17 -86 35 -156 39 -156 5 0 9 77 9 170 l0 170 30 0 30 0 0 -340 0 -340
-30 0 c-18 0 -33 7 -38 18 -5 9 -25 87 -43 172 l-34 155 -3 -172 -2 -173 -35
0 -35 0 0 340 0 340 29 0 c16 0 34 -6 40 -14z m516 -11 c21 -20 25 -34 25 -79
0 -52 -2 -57 -30 -71 l-30 -16 0 49 c0 55 -17 86 -46 80 -18 -3 -19 -15 -22
-281 -2 -250 -1 -278 14 -284 38 -14 49 9 52 115 2 93 1 103 -23 137 -14 21
-25 42 -25 47 0 5 24 8 53 6 l52 -3 3 -159 c2 -152 2 -160 -19 -183 -33 -34
-120 -33 -154 2 l-25 24 0 296 0 296 25 24 c19 20 34 25 75 25 41 0 56 -5 75
-25z m696 -4 l29 -29 0 -290 0 -289 -25 -27 c-21 -23 -32 -26 -88 -26 -55 0
-67 3 -88 26 l-24 26 0 295 0 295 28 24 c22 19 39 24 83 24 48 0 60 -4 85 -29z
m296 17 c4 -7 24 -89 44 -183 l37 -170 1 183 1 182 35 0 35 0 0 -340 0 -340
-29 0 c-16 0 -33 6 -39 13 -6 7 -25 78 -43 158 -17 79 -35 151 -40 159 -5 9
-9 -59 -9 -157 l0 -173 -30 0 -30 0 0 340 0 340 29 0 c17 0 33 -6 38 -12z
m415 -295 l3 -308 77 -5 77 -5 -12 -25 c-12 -24 -17 -25 -110 -28 l-97 -3 0
341 0 340 30 0 30 0 2 -307z m306 -35 l2 -338 -35 0 -35 0 0 341 0 340 33 -3
32 -3 3 -337z m270 325 c5 -10 24 -92 43 -183 l34 -165 3 183 2 182 35 0 35 0
0 -340 0 -340 -29 0 c-16 0 -34 6 -40 14 -6 7 -27 85 -47 172 -19 87 -37 161
-40 163 -2 2 -4 -75 -4 -172 l0 -177 -35 0 -35 0 0 340 0 340 35 0 c23 0 37
-6 43 -17z m542 8 c0 -27 -40 -55 -86 -60 l-49 -6 -3 -107 -3 -108 56 0 c39 0
55 -4 55 -13 0 -22 -43 -55 -75 -59 l-30 -3 0 -125 0 -125 73 -3 c39 -2 72 -6
72 -10 0 -4 -7 -18 -16 -30 -14 -20 -23 -22 -110 -22 l-94 0 0 318 c0 174 3
327 6 340 6 21 11 22 105 22 55 0 99 -4 99 -9z"/>
<path d="M9598 8024 c-263 -47 -523 -218 -680 -447 -233 -340 -236 -840 -7
-1181 52 -77 184 -212 269 -276 200 -149 454 -216 717 -190 257 26 461 121
640 298 234 232 345 534 314 850 -37 363 -240 668 -563 842 -198 107 -459 146
-690 104z"/>
<path d="M2860 4270 c0 -304 0 -301 53 -281 l27 11 -2 272 -3 273 -37 3 -38 3
0 -281z"/>
<path d="M7532 4538 c-9 -9 -12 -83 -12 -273 0 -190 3 -264 12 -273 17 -17 65
-15 72 4 3 9 6 131 6 273 0 270 -2 281 -45 281 -12 0 -26 -5 -33 -12z"/>
</g>
</svg>
